<svg id="SvgjsSvg1001" width="288" height="288" xmlns="http://www.w3.org/2000/svg" version="1.1" xmlns:xlink="http://www.w3.org/1999/xlink" xmlns:svgjs="http://svgjs.com/svgjs"><defs id="SvgjsDefs1002"></defs><g id="SvgjsG1008" transform="matrix(0.9167,0,0,0.9167,11.995225421142578,11.995225103378289)"><svg xmlns="http://www.w3.org/2000/svg" enable-background="new 0 0 469.333 469.333" viewBox="0 0 469.333 469.333" width="288" height="288"><path d="M234.667,170.667c-35.307,0-64,28.693-64,64s28.693,64,64,64s64-28.693,64-64S269.973,170.667,234.667,170.667z" fill="#52cc99" class="color000 svgShape"></path><path d="M234.667,74.667C128,74.667,36.907,141.013,0,234.667c36.907,93.653,128,160,234.667,160
				c106.773,0,197.76-66.347,234.667-160C432.427,141.013,341.44,74.667,234.667,74.667z M234.667,341.333
				c-58.88,0-106.667-47.787-106.667-106.667S175.787,128,234.667,128s106.667,47.787,106.667,106.667
				S293.547,341.333,234.667,341.333z" fill="#52cc99" class="color000 svgShape"></path></svg></g></svg>